# Blender v2.80 (sub 75) OBJ File: 'Endless light models.blend'
# www.blender.org
o Stalagmite
v -0.878434 -0.000005 -0.313727
v -0.878434 0.799998 -0.313727
v -0.478433 -0.000005 -0.713729
v -0.478433 -0.000005 -0.313727
v -0.478433 0.399997 -0.713729
v -0.078431 0.399997 -0.713729
v -0.478433 0.399997 -0.313727
v -0.478433 0.799998 -0.313727
v -0.078431 0.399997 -0.313727
v -0.478433 1.199996 0.086275
v -0.078431 1.199996 0.086275
v -0.078431 1.599998 0.086275
v -0.878434 -0.000005 0.486272
v -0.878434 0.799998 0.486272
v -0.478433 -0.000005 0.486272
v -0.478433 -0.000005 0.886274
v -0.478433 0.799998 0.486272
v -0.478433 0.799998 0.886274
v -0.478433 1.199996 0.486272
v -0.078431 1.199996 0.486272
v -0.078431 1.599998 0.486272
v -0.078431 2.000000 -0.713728
v -0.478433 1.999999 -0.313727
v -0.478433 1.999999 0.086275
v -0.078431 1.999999 -0.313727
v -0.078431 1.999999 0.086275
v -0.078431 3.599998 -0.313727
v -0.078431 3.599998 0.086275
v 0.321567 0.799999 -0.713729
v 0.321567 0.799998 -0.313727
v 0.321567 0.799998 0.086275
v 0.721568 -0.000005 -0.713729
v 0.721568 0.799999 -0.713729
v 0.721568 0.799998 -0.313727
v 0.721568 0.799998 0.086275
v 0.321567 1.199996 -0.313727
v 0.321567 1.199996 0.086275
v 0.321567 1.599998 0.086275
v 0.721568 1.199996 -0.313727
v 0.721568 1.199996 0.086275
v 0.321567 -0.000005 0.486272
v 0.321567 -0.000005 0.886274
v 0.321567 0.799998 0.486272
v 0.321567 0.799998 0.886274
v 0.721568 -0.000005 0.486272
v 0.721568 0.799998 0.486272
v 0.321567 1.599998 0.486272
v 0.321567 2.000000 -0.713728
v 0.321567 1.999999 -0.313727
v 0.321567 3.599998 -0.313727
v 0.321567 3.599998 0.086275
vt 0.833333 0.416667
vt 0.916666 0.416667
vt 0.916666 0.749999
vt 0.833333 0.749999
vt 0.999999 0.666667
vt 0.916666 0.666667
vt 0.916666 0.583333
vt 0.999999 0.583333
vt 0.250000 1.000000
vt 0.250000 0.916667
vt 0.333333 0.916667
vt 0.333333 1.000000
vt 0.916667 0.916667
vt 0.916667 0.999999
vt 0.833333 0.999999
vt 0.833333 0.916667
vt 0.166667 0.833332
vt 0.166667 0.999999
vt 0.083334 0.999999
vt 0.083334 0.833332
vt 0.583333 0.916667
vt 0.500000 0.916667
vt 0.500000 0.833334
vt 0.583333 0.833334
vt 0.666666 0.666667
vt 0.666666 0.500000
vt 0.749999 0.500000
vt 0.750000 0.749999
vt 0.583333 0.749999
vt 0.583333 0.666667
vt 0.666667 0.916667
vt 0.666667 0.999999
vt 0.583333 0.999999
vt 0.583333 0.916667
vt 0.999999 0.250001
vt 0.916667 0.250001
vt 0.916667 0.166667
vt 0.999999 0.166667
vt 0.749999 0.916667
vt 0.749999 0.749999
vt 0.916666 0.749999
vt 0.916666 0.916667
vt 1.000000 0.000000
vt 1.000000 0.083334
vt 0.916667 0.083334
vt 0.916667 0.000000
vt 0.166667 0.833332
vt 0.250000 0.833332
vt 0.250000 0.916666
vt 0.166667 0.916666
vt 0.916666 0.916666
vt 0.916666 0.749999
vt 0.999999 0.749999
vt 0.999999 0.916666
vt 0.416666 0.916667
vt 0.416666 0.750000
vt 0.500000 0.750000
vt 0.500000 0.916667
vt 0.833333 0.916667
vt 0.833333 0.999999
vt 0.749999 0.999999
vt 0.749999 0.916667
vt 0.416666 0.916666
vt 0.250000 0.916667
vt 0.250000 0.833334
vt 0.333333 0.833334
vt 0.333333 0.750000
vt 0.416666 0.750000
vt 0.999999 0.666667
vt 0.999999 0.749999
vt 0.916666 0.749999
vt 0.916666 0.666667
vt 1.000000 0.083334
vt 1.000000 0.166667
vt 0.916667 0.166667
vt 0.916667 0.083334
vt 0.083333 0.583332
vt 0.250000 0.583332
vt 0.250000 0.833332
vt 0.083333 0.833332
vt 0.083333 0.749999
vt 0.000000 0.749999
vt 0.000000 0.666665
vt 0.083333 0.666665
vt 0.749999 0.916667
vt 0.583333 0.916667
vt 0.583333 0.749999
vt 0.749999 0.749999
vt 0.083334 0.999999
vt 0.000000 0.999999
vt 0.000000 0.833332
vt 0.083334 0.833332
vt 0.166667 0.916666
vt 0.250000 0.916666
vt 0.250000 0.999999
vt 0.166667 0.999999
vt 0.833333 0.166667
vt 0.833333 0.416667
vt 0.749999 0.416667
vt 0.749999 0.083334
vt 0.833333 0.083334
vt 0.833333 0.000000
vt 0.916666 0.000000
vt 0.916666 0.166667
vt 0.250000 0.583332
vt 0.166667 0.583332
vt 0.166667 0.500000
vt 0.083334 0.500000
vt 0.083334 0.583332
vt 0.000000 0.583332
vt 0.000000 0.333333
vt 0.083334 0.333333
vt 0.083334 0.000000
vt 0.166667 0.000000
vt 0.166667 0.416666
vt 0.250000 0.416666
vt 0.749999 0.416667
vt 0.749999 0.749999
vt 0.583333 0.833334
vt 0.500000 0.833334
vt 0.500000 0.666667
vt 0.583333 0.666667
vt 0.916667 0.250001
vt 0.999999 0.250001
vt 0.999999 0.333334
vt 0.916667 0.333334
vt 0.666666 0.500000
vt 0.666666 0.416666
vt 0.583333 0.416666
vt 0.583333 0.000000
vt 0.666666 0.000000
vt 0.666666 0.333333
vt 0.749999 0.333333
vt 0.749999 0.500000
vt 0.416666 0.750000
vt 0.333333 0.750000
vt 0.333333 0.500000
vt 0.250000 0.500000
vt 0.250000 0.333333
vt 0.500000 0.333333
vt 0.500000 0.416667
vt 0.416666 0.416667
vt 0.999999 0.583333
vt 0.916666 0.583333
vt 0.916666 0.416667
vt 0.999999 0.416667
vt 0.500000 0.083334
vt 0.583333 0.083334
vt 0.583333 0.333333
vt 0.333333 0.333333
vt 0.333333 0.250000
vt 0.250000 0.250000
vt 0.250000 0.083334
vt 0.333333 0.083334
vt 0.333333 0.000000
vt 0.500000 0.000000
vt 0.500000 0.333333
vt 0.583333 0.333333
vt 0.583333 0.666667
vt 0.500000 0.666667
vn 0.0000 0.0000 -1.0000
vn 0.0000 1.0000 0.0000
vn -1.0000 0.0000 0.0000
vn 0.0000 -0.0000 1.0000
vn 1.0000 0.0000 0.0000
vn -0.0000 -1.0000 -0.0000
s off
f 27/1/1 50/2/1 49/3/1 25/4/1
f 37/5/2 40/6/2 39/7/2 36/8/2
f 4/9/3 7/10/3 5/11/3 3/12/3
f 28/13/2 51/14/2 50/15/2 27/16/2
f 15/17/4 17/18/4 14/19/4 13/20/4
f 30/21/2 34/22/2 33/23/2 29/24/2
f 10/25/3 24/26/3 23/27/3 8/28/3 17/29/3 19/30/3
f 35/31/4 40/32/4 37/33/4 31/34/4
f 20/35/2 11/36/2 10/37/2 19/38/2
f 42/39/4 44/40/4 18/41/4 16/42/4
f 24/43/2 26/44/2 25/45/2 23/46/2
f 46/47/2 35/48/2 31/49/2 43/50/2
f 17/51/2 8/52/2 2/53/2 14/54/2
f 16/55/3 18/56/3 17/57/3 15/58/3
f 39/59/1 34/60/1 30/61/1 36/62/1
f 43/63/4 47/64/4 21/65/4 20/66/4 19/67/4 17/68/4
f 11/69/3 20/70/3 21/71/3 12/72/3
f 7/73/2 9/74/2 6/75/2 5/76/2
f 46/77/5 45/78/5 32/79/5 33/80/5 34/81/5 39/82/5 40/83/5 35/84/5
f 1/85/3 13/86/3 14/87/3 2/88/3
f 46/89/4 43/90/4 41/91/4 45/92/4
f 47/93/2 38/94/2 12/95/2 21/96/2
f 8/97/1 23/98/1 25/99/1 9/100/1 7/101/1 4/102/1 1/103/1 2/104/1
f 43/105/5 31/106/5 37/107/5 36/108/5 30/109/5 29/110/5 48/111/5 49/112/5 50/113/5 51/114/5 38/115/5 47/116/5
f 28/117/3 27/1/3 25/4/3 26/118/3
f 43/119/5 44/120/5 42/121/5 41/122/5
f 25/123/2 49/124/2 48/125/2 22/126/2
f 11/127/4 12/128/4 38/129/4 51/130/4 28/131/4 26/132/4 24/133/4 10/134/4
f 22/135/1 48/136/1 29/137/1 33/138/1 32/139/1 3/140/1 5/141/1 6/142/1
f 44/143/2 43/144/2 17/145/2 18/146/2
f 4/147/6 3/148/6 32/149/6 45/150/6 41/151/6 42/152/6 16/153/6 15/154/6 13/155/6 1/156/6
f 25/157/3 22/158/3 6/159/3 9/160/3
