# Blender v2.80 (sub 75) OBJ File: 'Endless light models.blend'
# www.blender.org
mtllib Endless light Glow stone narrow models.mtl
o Glow_stone_narrow_Glow_stone_big
v -0.468750 0.150000 -0.131250
v -0.468750 0.000000 -0.281250
v -0.468750 0.150000 -0.281250
v -0.168750 0.300000 0.018750
v -0.168750 0.000000 0.018750
v -0.018750 0.150000 0.468750
v 0.281250 0.000000 0.018750
v -0.318750 0.000000 -0.131250
v -0.318750 0.150000 -0.131250
v 0.131250 0.150000 0.318750
v 0.431250 0.000000 0.018750
v 0.131250 -0.000000 0.468750
v -0.018750 -0.000000 0.468750
v 0.131250 0.150000 0.468750
v 0.131250 0.000000 0.018750
v 0.281250 0.150000 0.018750
v 0.431250 0.150000 0.018750
v -0.468750 0.000000 -0.131250
v 0.281250 0.150000 -0.131250
v 0.431250 0.000000 -0.131250
v -0.168750 0.000000 -0.281250
v -0.168750 0.300000 -0.281250
v 0.131250 0.000000 -0.281250
v -0.018750 -0.000000 0.318750
v 0.131250 -0.000000 0.318750
v 0.281250 0.000000 -0.131250
v -0.318750 0.000000 -0.281250
v -0.018750 0.150000 0.318750
v 0.431250 0.150000 -0.131250
v -0.318750 0.150000 -0.281250
v 0.131250 0.300000 0.018750
v 0.131250 0.300000 -0.281250
vt 0.970703 0.500000
vt 0.970703 0.500000
vt 0.970703 0.500000
vt 0.970703 0.500000
vt 0.970703 0.500000
vt 0.970703 0.500000
vt 0.970703 0.500000
vt 0.970703 0.500000
vt 0.970703 0.500000
vt 0.970703 0.500000
vt 0.970703 0.500000
vt 0.970703 0.500000
vt 0.970703 0.500000
vt 0.970703 0.500000
vt 0.970703 0.500000
vt 0.970703 0.500000
vt 0.970703 0.500000
vt 0.970703 0.500000
vt 0.970703 0.500000
vt 0.970703 0.500000
vt 0.970703 0.500000
vt 0.970703 0.500000
vt 0.970703 0.500000
vt 0.970703 0.500000
vt 0.970703 0.500000
vt 0.970703 0.500000
vt 0.970703 0.500000
vt 0.970703 0.500000
vt 0.970703 0.500000
vt 0.970703 0.500000
vt 0.970703 0.500000
vt 0.970703 0.500000
vn -1.0000 0.0000 0.0000
vn 1.0000 -0.0000 0.0000
vn 0.0000 -0.0000 1.0000
vn 0.0000 0.0000 -1.0000
vn 0.0000 -1.0000 -0.0000
vn 0.0000 1.0000 0.0000
usemtl palette.004
s off
f 1/1/1 2/2/1 18/3/1
f 3/4/1 2/2/1 1/1/1
f 4/5/1 21/6/1 5/7/1
f 22/8/1 21/6/1 4/5/1
f 6/9/1 24/10/1 13/11/1
f 28/12/1 24/10/1 6/9/1
f 16/13/1 26/14/1 7/15/1
f 19/16/1 26/14/1 16/13/1
f 8/17/2 27/18/2 9/19/2
f 9/19/2 27/18/2 30/20/2
f 12/21/2 25/22/2 14/23/2
f 14/23/2 25/22/2 10/24/2
f 15/25/2 23/26/2 31/27/2
f 31/27/2 23/26/2 32/28/2
f 11/29/2 20/30/2 17/31/2
f 17/31/2 20/30/2 29/32/2
f 12/21/3 6/9/3 13/11/3
f 14/23/3 6/9/3 12/21/3
f 15/25/3 4/5/3 5/7/3
f 31/27/3 4/5/3 15/25/3
f 11/29/3 16/13/3 7/15/3
f 17/31/3 16/13/3 11/29/3
f 8/17/3 1/1/3 18/3/3
f 9/19/3 1/1/3 8/17/3
f 24/10/4 28/12/4 25/22/4
f 25/22/4 28/12/4 10/24/4
f 26/14/4 19/16/4 20/30/4
f 20/30/4 19/16/4 29/32/4
f 2/2/4 3/4/4 27/18/4
f 27/18/4 3/4/4 30/20/4
f 21/6/4 22/8/4 23/26/4
f 23/26/4 22/8/4 32/28/4
f 24/10/5 12/21/5 13/11/5
f 25/22/5 12/21/5 24/10/5
f 26/14/5 11/29/5 7/15/5
f 20/30/5 11/29/5 26/14/5
f 2/2/5 8/17/5 18/3/5
f 27/18/5 8/17/5 2/2/5
f 21/6/5 15/25/5 5/7/5
f 23/26/5 15/25/5 21/6/5
f 6/9/6 14/23/6 28/12/6
f 28/12/6 14/23/6 10/24/6
f 16/13/6 17/31/6 19/16/6
f 19/16/6 17/31/6 29/32/6
f 1/1/6 9/19/6 3/4/6
f 3/4/6 9/19/6 30/20/6
f 4/5/6 31/27/6 22/8/6
f 22/8/6 31/27/6 32/28/6
