# Blender v2.80 (sub 75) OBJ File: 'Endless light models.blend'
# www.blender.org
o Mushrooms
v -1.357142 1.299995 0.028572
v -1.357142 1.299995 0.928572
v -1.357142 1.599995 0.028572
v -1.057142 0.799995 -0.171428
v -1.057142 0.599995 -0.771428
v -1.057142 1.599995 1.228572
v -1.057142 1.299995 0.928572
v -1.057142 1.299995 1.228572
v -1.057142 1.299995 -0.271428
v -1.057142 1.599995 -0.271428
v -0.857142 -0.000005 -0.571429
v -0.757143 -0.000005 0.328572
v 0.142858 0.499995 -0.571428
v 0.142858 0.499995 -0.371428
v 0.142858 0.899996 -0.571428
v 0.242857 -0.000005 -0.571429
v 0.242857 -0.000005 -0.371428
v 0.242857 0.799995 0.428572
v 0.442858 0.799995 0.628572
v 0.442858 0.599995 0.028572
v 0.442858 0.799995 -0.171428
v -0.657143 -0.000005 -0.571429
v -0.457142 0.799995 -0.171428
v -0.457142 1.299995 0.328572
v -0.157143 1.599995 1.228572
v -0.157143 1.299995 0.028572
v 0.142858 1.599995 0.928572
v 0.442858 -0.000005 -0.571429
v 0.442858 0.499995 -0.371428
v 0.442858 0.499995 -0.671428
v 0.542857 0.499995 -0.571428
v 0.542857 0.899995 -0.371428
v 0.842858 0.599995 0.428572
v 0.842858 0.799995 0.428572
v 1.042857 0.599995 0.028572
v 1.042857 0.799995 0.028572
v -0.157143 1.299995 1.228572
v 0.142858 1.299995 0.928572
v -0.157143 1.299995 0.928572
v -0.457142 -0.000005 0.628572
v -0.757143 1.299995 0.628572
v -0.757143 -0.000005 0.628572
v -0.457142 1.299995 0.628572
v 0.842858 0.599995 0.628572
v 0.442858 0.599995 0.428572
v 0.242857 0.599995 0.428572
v 1.042857 0.599995 0.428572
v 0.542857 -0.000005 0.328572
v -1.057142 0.599995 -0.171428
v 0.242857 0.899995 -0.271428
v -0.857142 0.599995 -0.371428
v 0.242857 1.099995 -0.371428
v 0.542857 0.499995 -0.371428
v 0.542857 -0.000005 0.128571
v 0.542857 0.599995 0.128572
v 0.742857 0.599995 0.128572
v -1.057142 1.599995 0.028572
v -0.157143 1.599995 0.028572
v 0.142858 1.299995 0.028572
v 0.142858 1.599995 0.028572
v 0.242857 0.799995 0.028572
v 0.842858 0.599995 0.028572
v 0.442858 0.599995 -0.171428
v 0.842858 0.799995 -0.171428
v -0.857142 0.599995 -0.571428
v -0.657143 0.599995 -0.571428
v 0.242857 0.499995 -0.571428
v 0.442858 0.899996 -0.571428
v 0.442858 1.099995 -0.571428
v 0.542857 0.899996 -0.571428
v 0.442858 0.899996 -0.671428
v -0.457142 0.599995 -0.771428
v -0.457142 -0.000005 0.328572
v 0.742857 -0.000005 0.328572
v 0.742857 -0.000005 0.128571
v -0.657143 -0.000004 -0.371428
v -0.857142 -0.000004 -0.371428
v 0.442858 -0.000005 -0.371428
v 0.242857 0.499995 -0.371428
v 0.442858 0.499995 -0.271428
v 0.242857 0.499995 -0.271428
v 0.442858 0.499995 -0.571428
v 0.242857 0.499995 -0.671428
v 0.442858 0.599995 0.628572
v 0.542857 0.599995 0.328572
v 0.742857 0.599995 0.328572
v 0.242857 0.599995 0.028572
v 0.842858 0.599995 -0.171428
v -0.457142 0.599995 -0.171428
v -0.657143 0.599995 -0.371428
v -0.757143 1.299995 0.328572
v -1.057142 1.299995 0.028572
v -0.157143 1.299995 -0.271428
v 0.842858 0.799995 0.628572
v 0.442858 0.799995 0.428572
v 1.042857 0.799995 0.428572
v 0.442858 0.799995 0.028572
v 0.842858 0.799995 0.028572
v -1.057142 0.799995 -0.771428
v -0.457142 0.799995 -0.771428
v 0.442858 0.899995 -0.271428
v 0.242857 0.899995 -0.371428
v 0.442858 0.899995 -0.371428
v 0.142858 0.899995 -0.371428
v 0.242857 0.899996 -0.571428
v 0.242857 0.899996 -0.671428
v 0.442858 1.099995 -0.371428
v 0.242857 1.099995 -0.571428
v -1.057142 1.599995 0.928572
v -0.157143 1.599995 0.928572
v -1.357142 1.599995 0.928572
v -0.157143 1.599995 -0.271428
vt 0.520592 0.972712
vt 0.527524 0.972712
vt 0.527524 0.990044
vt 0.520592 0.990044
vt 0.548322 0.969246
vt 0.555255 0.969246
vt 0.555255 0.990044
vt 0.548322 0.990044
vt 0.600604 0.956297
vt 0.600604 0.949408
vt 0.593715 0.949408
vt 0.593715 0.935631
vt 0.600604 0.935631
vt 0.600604 0.928742
vt 0.614381 0.928742
vt 0.614381 0.935631
vt 0.621270 0.935631
vt 0.621270 0.949408
vt 0.614381 0.949408
vt 0.614381 0.956297
vt 0.614381 0.956297
vt 0.628159 0.963186
vt 0.621270 0.963186
vt 0.621270 0.970075
vt 0.614381 0.976964
vt 0.648826 0.983853
vt 0.641937 0.983853
vt 0.641937 0.976964
vt 0.648826 0.976964
vt 0.703418 0.952938
vt 0.703418 0.978086
vt 0.697131 0.978086
vt 0.697131 0.952938
vt 0.464180 0.869761
vt 0.464180 0.897167
vt 0.455044 0.897167
vt 0.455044 0.869761
vt 0.628159 0.983853
vt 0.635048 0.983853
vt 0.635048 0.990742
vt 0.628159 0.990742
vt 0.715992 0.927789
vt 0.715992 0.952938
vt 0.703418 0.952938
vt 0.703418 0.927789
vt 0.690844 0.927789
vt 0.690844 0.952938
vt 0.678270 0.952938
vt 0.678270 0.927789
vt 0.690844 0.978086
vt 0.690844 0.990660
vt 0.678270 0.990660
vt 0.678270 0.978086
vt 0.715992 0.952938
vt 0.715992 0.965512
vt 0.703418 0.965512
vt 0.703418 0.952938
vt 0.614381 0.990742
vt 0.614381 0.976964
vt 0.621270 0.976964
vt 0.621270 0.990742
vt 0.513659 0.972712
vt 0.513659 0.990044
vt 0.506727 0.990044
vt 0.506727 0.972712
vt 0.087520 0.667064
vt 0.087520 0.585389
vt 0.332545 0.585389
vt 0.332545 0.667064
vt 0.414220 0.667064
vt 0.414220 0.912089
vt 0.332545 0.912089
vt 0.332545 0.993764
vt 0.087520 0.993764
vt 0.087520 0.912089
vt 0.005845 0.912089
vt 0.005845 0.667064
vt 0.555255 0.948448
vt 0.555255 0.969246
vt 0.548322 0.969246
vt 0.548322 0.948448
vt 0.648826 0.956297
vt 0.648826 0.976964
vt 0.641937 0.976964
vt 0.641937 0.956297
vt 0.517125 0.927651
vt 0.517125 0.972712
vt 0.506727 0.972712
vt 0.506727 0.927651
vt 0.555255 0.927651
vt 0.555255 0.948448
vt 0.548322 0.948448
vt 0.548322 0.927651
vt 0.697131 0.952938
vt 0.697131 0.978086
vt 0.690844 0.978086
vt 0.690844 0.952938
vt 0.453921 0.939314
vt 0.466670 0.939314
vt 0.466670 0.952063
vt 0.453921 0.952063
vt 0.562187 0.948448
vt 0.562187 0.969246
vt 0.555255 0.969246
vt 0.555255 0.948448
vt 0.607493 0.990742
vt 0.600604 0.990742
vt 0.600604 0.976964
vt 0.607493 0.976964
vt 0.534457 0.990044
vt 0.534457 0.983111
vt 0.541389 0.983111
vt 0.541389 0.990044
vt 0.593715 0.976964
vt 0.600604 0.976964
vt 0.600604 0.990742
vt 0.593715 0.990742
vt 0.520592 0.972712
vt 0.520592 0.990044
vt 0.513659 0.990044
vt 0.513659 0.972712
vt 0.621270 0.983853
vt 0.621270 0.976964
vt 0.628159 0.976964
vt 0.628159 0.983853
vt 0.703418 0.952938
vt 0.690844 0.927789
vt 0.703418 0.927789
vt 0.715992 0.965512
vt 0.715992 0.978086
vt 0.703418 0.978086
vt 0.703418 0.965512
vt 0.734854 0.965512
vt 0.734854 0.952938
vt 0.741141 0.952938
vt 0.741141 0.965512
vt 0.722279 0.978086
vt 0.715992 0.978086
vt 0.715992 0.952938
vt 0.722279 0.952938
vt 0.562187 0.990044
vt 0.555255 0.990044
vt 0.555255 0.969246
vt 0.562187 0.969246
vt 0.641937 0.990742
vt 0.635048 0.990742
vt 0.635048 0.983853
vt 0.641937 0.983853
vt 0.562187 0.927651
vt 0.562187 0.948448
vt 0.555255 0.948448
vt 0.555255 0.927651
vt 0.628159 0.983853
vt 0.628159 0.990742
vt 0.621270 0.990742
vt 0.621270 0.983853
vt 0.728567 0.990660
vt 0.722279 0.990660
vt 0.722279 0.978086
vt 0.728567 0.978086
vt 0.562187 0.976179
vt 0.562187 0.969246
vt 0.569120 0.969246
vt 0.569120 0.976179
vt 0.445909 0.897167
vt 0.436774 0.897167
vt 0.436774 0.869761
vt 0.445909 0.869761
vt 0.734854 0.952938
vt 0.728567 0.952938
vt 0.728567 0.927789
vt 0.734854 0.927789
vt 0.562187 0.948448
vt 0.569120 0.948448
vt 0.648826 0.956297
vt 0.655715 0.956297
vt 0.655715 0.976964
vt 0.648826 0.976964
vt 0.635048 0.976964
vt 0.635048 0.983853
vt 0.628159 0.983853
vt 0.628159 0.976964
vt 0.614381 0.976964
vt 0.614381 0.990742
vt 0.607493 0.990742
vt 0.607493 0.976964
vt 0.541389 0.990044
vt 0.541389 0.983111
vt 0.548322 0.983111
vt 0.548322 0.990044
vt 0.635048 0.976964
vt 0.641937 0.976964
vt 0.641937 0.983853
vt 0.635048 0.983853
vt 0.648826 0.949408
vt 0.655715 0.949408
vt 0.655715 0.956297
vt 0.648826 0.956297
vt 0.466670 0.977562
vt 0.453921 0.977562
vt 0.453921 0.964812
vt 0.466670 0.964812
vt 0.569120 0.948448
vt 0.562187 0.948448
vt 0.562187 0.927651
vt 0.569120 0.927651
vt 0.648826 0.949408
vt 0.648826 0.928742
vt 0.655715 0.928742
vt 0.655715 0.949408
vt 0.690844 0.978086
vt 0.678270 0.978086
vt 0.678270 0.952938
vt 0.690844 0.952938
vt 0.715992 0.978086
vt 0.722279 0.978086
vt 0.722279 0.990660
vt 0.715992 0.990660
vt 0.690844 0.978086
vt 0.703418 0.978086
vt 0.703418 0.990660
vt 0.690844 0.990660
vt 0.527524 0.972712
vt 0.534457 0.972712
vt 0.527524 0.990044
vt 0.728567 0.952938
vt 0.734854 0.952938
vt 0.734854 0.978086
vt 0.728567 0.978086
vt 0.445909 0.897167
vt 0.445909 0.869761
vt 0.455044 0.869761
vt 0.455044 0.897167
vt 0.517125 0.927651
vt 0.527524 0.927651
vt 0.527524 0.972712
vt 0.517126 0.972712
vt 0.479419 0.952063
vt 0.479419 0.964812
vt 0.466670 0.964812
vt 0.466670 0.952063
vt 0.464180 0.869761
vt 0.473315 0.869761
vt 0.473315 0.897167
vt 0.464180 0.897167
vt 0.631604 0.939075
vt 0.628159 0.949408
vt 0.621270 0.949408
vt 0.621270 0.935631
vt 0.628159 0.935631
vt 0.628159 0.928742
vt 0.641937 0.928742
vt 0.641937 0.935631
vt 0.638493 0.945964
vt 0.638493 0.939075
vt 0.722279 0.927789
vt 0.722279 0.952938
vt 0.715992 0.952938
vt 0.715992 0.927789
vt 0.088216 0.498546
vt 0.169891 0.416871
vt 0.251566 0.416871
vt 0.251566 0.335196
vt 0.006541 0.253521
vt 0.088216 0.253521
vt 0.088216 0.171846
vt 0.333241 0.171846
vt 0.333241 0.253521
vt 0.414916 0.253521
vt 0.414916 0.498546
vt 0.333241 0.498546
vt 0.333241 0.580221
vt 0.088216 0.580221
vt 0.453921 0.952063
vt 0.453921 0.964812
vt 0.441172 0.964812
vt 0.441172 0.952063
vt 0.466670 0.939314
vt 0.479419 0.939314
vt 0.728567 0.927789
vt 0.728567 0.952938
vt 0.722279 0.952938
vt 0.722279 0.927789
vt 0.648826 0.949408
vt 0.641937 0.949408
vt 0.641937 0.956297
vt 0.628159 0.956297
vt 0.631604 0.945964
vt 0.648826 0.935631
vt 0.441172 0.952063
vt 0.441172 0.939314
vt 0.628159 0.970075
vt 0.635048 0.956297
vt 0.635048 0.976964
vt 0.641937 0.976964
vt 0.641937 0.956297
vt 0.728567 0.978086
vt 0.734854 0.978086
vt 0.734854 0.990660
vt 0.728567 0.990660
vt 0.734854 0.978086
vt 0.741141 0.978086
vt 0.741141 0.990660
vt 0.441172 0.977562
vt 0.441172 0.964812
vt 0.537923 0.927651
vt 0.537923 0.972712
vt 0.527524 0.972712
vt 0.527524 0.927651
vt 0.466670 0.964812
vt 0.466670 0.952063
vt 0.169891 0.335196
vt 0.006541 0.498546
vt 0.534457 0.983111
vt 0.534457 0.972712
vt 0.544856 0.972712
vt 0.544856 0.983111
vt 0.715992 0.978086
vt 0.715992 0.990660
vt 0.703418 0.990660
vt 0.703418 0.978086
vt 0.741141 0.940363
vt 0.734854 0.940363
vt 0.734854 0.927789
vt 0.741141 0.927789
vt 0.548322 0.972712
vt 0.537923 0.972712
vt 0.537923 0.927651
vt 0.548322 0.927651
vt 0.741141 0.940363
vt 0.741141 0.952938
vt 0.734854 0.952938
vt 0.734854 0.940363
vt 0.593715 0.956297
vt 0.614381 0.956297
vt 0.614381 0.976964
vt 0.593715 0.976964
vt 0.722279 0.952938
vt 0.728567 0.952938
vt 0.728567 0.978086
vt 0.722279 0.978086
vt 0.741141 0.965512
vt 0.741141 0.978086
vt 0.734854 0.978086
vt 0.734854 0.965512
vn 0.0000 -0.0000 1.0000
vn 0.0000 1.0000 0.0000
vn -0.0000 -1.0000 -0.0000
vn 1.0000 0.0000 0.0000
vn -1.0000 0.0000 0.0000
vn 0.0000 0.0000 -1.0000
s off
f 29/1/1 79/2/1 17/3/1 78/4/1
f 86/5/1 85/6/1 48/7/1 74/8/1
f 94/9/2 34/10/2 96/11/2 36/12/2 98/13/2 64/14/2 21/15/2 97/16/2 61/17/2 18/18/2 95/19/2 19/20/2
f 89/21/3 51/22/3 90/23/3 66/24/3 72/25/3
f 95/26/1 18/27/1 46/28/1 45/29/1
f 30/30/4 71/31/4 68/32/4 82/33/4
f 25/34/1 6/35/1 8/36/1 37/37/1
f 33/38/4 34/39/4 94/40/4 44/41/4
f 15/42/5 13/43/5 14/44/5 104/45/5
f 31/46/4 70/47/4 32/48/4 53/49/4
f 107/50/1 52/51/1 102/52/1 103/53/1
f 107/54/2 69/55/2 108/56/2 52/57/2
f 21/58/6 64/59/6 88/60/6 63/61/6
f 28/62/4 82/63/4 29/64/4 78/65/4
f 110/66/2 27/67/2 60/68/2 58/69/2 112/70/2 10/71/2 57/72/2 3/73/2 111/74/2 109/75/2 6/76/2 25/77/2
f 65/78/5 11/79/5 77/80/5 51/81/5
f 23/82/1 4/83/1 49/84/1 89/85/1
f 73/86/4 24/87/4 43/88/4 40/89/4
f 22/90/4 66/91/4 90/92/4 76/93/4
f 102/94/5 79/95/5 81/96/5 50/97/5
f 109/98/1 111/99/1 2/100/1 7/101/1
f 75/102/4 56/103/4 86/104/4 74/105/4
f 61/106/5 87/107/5 46/108/5 18/109/5
f 28/110/3 78/111/3 17/112/3 16/113/3
f 35/114/4 36/115/4 96/116/4 47/117/4
f 67/118/5 16/119/5 17/120/5 79/121/5
f 88/122/4 64/123/4 98/124/4 62/125/4
f 101/126/1 50/97/1 81/127/1 80/128/1
f 68/129/4 69/130/4 107/131/4 103/132/4
f 31/133/3 53/134/3 29/135/3 82/136/3
f 32/137/1 103/138/1 29/139/1 53/140/1
f 55/141/6 56/142/6 75/143/6 54/144/6
f 96/145/1 34/146/1 33/147/1 47/148/1
f 55/149/5 54/150/5 48/151/5 85/152/5
f 95/153/5 45/154/5 84/155/5 19/156/5
f 101/157/2 103/158/2 102/159/2 50/160/2
f 22/161/3 76/162/3 77/163/3 11/164/3
f 3/165/5 1/166/5 2/167/5 111/168/5
f 102/169/1 104/170/1 14/171/1 79/172/1
f 90/173/1 51/174/1 77/163/1 76/162/1
f 72/175/4 100/176/4 23/177/4 89/178/4
f 21/179/5 63/180/5 20/181/5 97/182/5
f 94/183/1 19/184/1 84/185/1 44/186/1
f 75/187/3 74/188/3 48/189/3 54/190/3
f 61/191/6 97/192/6 20/193/6 87/194/6
f 98/195/6 36/196/6 35/197/6 62/198/6
f 3/199/6 57/200/6 92/201/6 1/202/6
f 65/203/6 66/204/6 22/205/6 11/206/6
f 99/207/6 100/208/6 72/209/6 5/210/6
f 106/211/6 71/212/6 30/213/6 83/214/6
f 29/215/3 80/216/3 81/217/3 79/218/3
f 108/219/6 69/220/6 68/221/6 105/222/6
f 67/223/6 82/224/6 28/110/6 16/225/6
f 15/226/6 105/227/6 67/228/6 13/229/6
f 10/230/6 112/231/6 93/232/6 9/233/6
f 91/234/6 24/235/6 73/236/6 12/237/6
f 58/238/6 60/239/6 59/240/6 26/241/6
f 59/242/4 60/243/4 27/244/4 38/245/4
f 85/246/3 33/247/3 44/248/3 84/249/3 45/250/3 46/251/3 87/252/3 20/253/3 56/254/3 55/255/3
f 29/256/4 103/257/4 101/258/4 80/259/4
f 26/260/3 24/261/3 91/262/3 41/263/3 38/264/3 39/265/3 37/266/3 8/267/3 7/268/3 2/269/3 1/270/3 92/271/3 9/272/3 93/273/3
f 39/274/4 110/275/4 25/276/4 37/277/4
f 93/278/4 112/279/4 58/238/4 26/241/4
f 106/280/5 83/281/5 67/282/5 105/283/5
f 88/284/3 62/285/3 35/286/3 47/287/3 33/247/3 85/246/3 86/288/3 56/254/3 20/253/3 63/289/3
f 109/98/5 7/101/5 8/290/5 6/291/5
f 65/292/3 51/22/3 89/21/3 49/293/3 5/294/3 72/25/3 66/24/3
f 99/295/5 5/294/5 49/293/5 4/296/5
f 30/297/3 82/298/3 67/299/3 83/300/3
f 67/299/3 79/301/3 14/302/3 13/303/3
f 10/304/5 9/305/5 92/201/5 57/200/5
f 91/306/5 12/307/5 42/308/5 41/309/5
f 27/310/1 110/275/1 39/274/1 38/311/1
f 38/264/3 41/263/3 43/312/3 24/261/3 26/260/3 59/313/3
f 73/314/3 40/315/3 42/316/3 12/317/3
f 108/318/5 105/319/5 102/320/5 52/321/5
f 68/322/2 71/323/2 106/324/2 105/325/2
f 43/326/1 41/327/1 42/328/1 40/329/1
f 102/330/2 105/331/2 15/332/2 104/333/2
f 23/334/2 100/335/2 99/336/2 4/337/2
f 68/338/6 70/339/6 31/340/6 82/341/6
f 32/342/2 70/343/2 68/344/2 103/345/2
