# Blender v2.80 (sub 75) OBJ File: 'Endless light models.blend'
# www.blender.org
o Ground_Cube.004
v -0.500000 -3.000000 0.500000
v -0.500000 0.000000 0.500000
v -0.500000 -3.000000 -0.500000
v -0.500000 0.000000 -0.500000
v 0.500000 -3.000000 0.500000
v 0.500000 0.000000 0.500000
v 0.500000 -3.000000 -0.500000
v 0.500000 0.000000 -0.500000
vt 0.500000 0.750000
vt 0.500000 0.000000
vt 0.750000 0.000000
vt 0.750000 0.750000
vt 0.250000 0.750000
vt 0.250000 0.000000
vt 0.500000 0.000000
vt 0.500000 0.750000
vt 0.250000 1.000000
vt 0.000000 1.000000
vt 0.000000 0.750000
vt 0.250000 0.750000
vt 1.000000 0.750000
vt 0.750000 0.750000
vt 1.000000 0.000000
vt 0.750000 0.000000
vt 0.250000 0.000000
vt -0.000000 0.000000
vn 1.0000 0.0000 0.0000
vn 0.0000 0.0000 1.0000
vn 0.0000 -1.0000 0.0000
vn 0.0000 0.0000 -1.0000
vn -1.0000 0.0000 0.0000
s off
f 2/1/1 1/2/1 3/3/1
f 3/3/1 4/4/1 2/1/1
f 4/5/2 3/6/2 7/7/2
f 7/7/2 8/8/2 4/5/2
f 2/9/3 4/10/3 8/11/3
f 6/12/3 2/9/3 8/11/3
f 2/13/4 6/14/4 1/15/4
f 6/14/4 5/16/4 1/15/4
f 6/12/5 8/11/5 5/17/5
f 7/18/5 5/17/5 8/11/5
